<?xml version="1.0" encoding="utf-8"?>
<svg width="20px" height="20px" viewBox="0 0 20 20" version="1.1" xmlns:xlink="http://www.w3.org/1999/xlink" xmlns="http://www.w3.org/2000/svg">
  <desc>Created with Lunacy</desc>
  <g id="codepend">
    <path d="M0 0L10.0004 0L10.0004 10.0004L0 10.0004L0 0Z" transform="translate(4.999756 4.999512)" id="Background" fill="none" stroke="none" />
    <path d="M9.97311 0C4.46533 0 0 4.46533 0 9.97311C0 15.4809 4.46533 19.9462 9.97311 19.9462C15.4809 19.9462 19.9462 15.4809 19.9462 9.97311C19.9462 4.46533 15.4809 0 9.97311 0Z" id="round-bg" fill="#BFC4CE" stroke="none" />
    <g id="codepen" transform="translate(2.946289 3.000488)">
      <path d="M0 0L14.9999 0L14.9999 14.9999L0 14.9999L0 0Z" id="Background" fill="none" stroke="none" />
      <g id="_x36__stroke">
        <g id="Codepen">
          <path d="M0 0L14.9999 0L14.9999 14.9999L0 14.9999L0 0Z" id="Rectangle" fill="none" stroke="none" />
          <path d="M14.1074 4.80261C14.1087 4.81143 14.1109 4.81982 14.1122 4.82908C14.1158 4.85467 14.1175 4.88114 14.1175 4.90805L14.1175 9.20949C14.1175 9.23596 14.1158 9.26243 14.1122 9.2889C14.1109 9.29728 14.1087 9.30611 14.1074 9.31493C14.1043 9.33214 14.1012 9.3489 14.0968 9.36566C14.0942 9.37581 14.0902 9.38552 14.0871 9.39522C14.0822 9.40978 14.0774 9.42478 14.0717 9.43978C14.0677 9.44949 14.0628 9.45919 14.058 9.4689C14.0518 9.48257 14.0452 9.49581 14.0372 9.50949C14.032 9.51875 14.0258 9.52802 14.02 9.53728C14.0121 9.55007 14.0037 9.56199 13.9945 9.5739C13.9878 9.58316 13.9808 9.59199 13.9737 9.60037C13.964 9.6114 13.9539 9.62287 13.9433 9.63301C13.9353 9.6414 13.9278 9.64934 13.9195 9.65684C13.908 9.66698 13.8965 9.67669 13.885 9.68596C13.8758 9.69301 13.867 9.70007 13.8577 9.70669C13.8542 9.7089 13.8511 9.71198 13.8475 9.71419L7.39538 14.0156C7.29347 14.0836 7.17612 14.1175 7.05877 14.1175C6.94142 14.1175 6.82406 14.0836 6.72215 14.0156L0.270439 9.71419C0.26691 9.71198 0.263821 9.7089 0.260292 9.70669C0.250586 9.70007 0.241763 9.69301 0.232939 9.68596C0.221028 9.67669 0.209557 9.66698 0.198528 9.65684C0.190146 9.64934 0.182204 9.6414 0.174263 9.63301C0.163675 9.62287 0.153528 9.6114 0.144264 9.60037C0.136764 9.59199 0.129705 9.58316 0.123087 9.5739C0.114264 9.56199 0.105882 9.55007 0.0979404 9.53728C0.091764 9.52802 0.0860287 9.51875 0.0802935 9.50949C0.0727936 9.49581 0.066176 9.48257 0.0595584 9.4689C0.0551466 9.45919 0.0502937 9.44949 0.0463232 9.43978C0.0401467 9.42478 0.0352938 9.40978 0.0304409 9.39522C0.0273527 9.38552 0.0238233 9.37581 0.0211763 9.36566C0.0167646 9.3489 0.0136764 9.33214 0.0105882 9.31493C0.00882346 9.30611 0.0066176 9.29728 0.00573525 9.2889C0.00220587 9.26243 0 9.23596 0 9.20949L0 4.90805C0 4.88114 0.00220587 4.85467 0.00573525 4.82908C0.0066176 4.81982 0.00882346 4.81143 0.0105882 4.80261C0.0136764 4.78541 0.0167646 4.7682 0.0211763 4.75188C0.0238233 4.74173 0.0273527 4.73202 0.0304409 4.72232C0.0352938 4.70732 0.0401468 4.69276 0.0463232 4.6782C0.0502937 4.66805 0.0551466 4.65791 0.0595584 4.64864C0.066176 4.63452 0.0727936 4.62129 0.0802935 4.60849C0.0860287 4.59879 0.091764 4.58952 0.0979404 4.58026C0.105882 4.56747 0.114264 4.55511 0.123087 4.5432C0.129705 4.53438 0.136764 4.52555 0.144264 4.51717C0.153528 4.5057 0.163675 4.49467 0.174263 4.48408C0.182204 4.47614 0.190146 4.46776 0.198528 4.4607C0.209557 4.45055 0.221028 4.44085 0.232939 4.43158C0.241762 4.42452 0.250586 4.41747 0.260292 4.41085C0.263821 4.40864 0.266909 4.40555 0.270439 4.40335L6.72215 0.101911C6.92642 -0.0339703 7.19156 -0.0339703 7.39538 0.101911L13.8475 4.40335C13.8511 4.40555 13.8542 4.40864 13.8577 4.41085C13.867 4.41747 13.8758 4.42452 13.885 4.43158C13.8965 4.44085 13.908 4.45055 13.9195 4.4607C13.9278 4.46776 13.9353 4.47614 13.9433 4.48408C13.9539 4.49467 13.964 4.5057 13.9737 4.51717C13.9808 4.52555 13.9878 4.53438 13.9945 4.5432C14.0037 4.55511 14.0121 4.56746 14.02 4.58026C14.0258 4.58952 14.032 4.59879 14.0372 4.60849C14.0452 4.62129 14.0518 4.63452 14.058 4.64864C14.0628 4.65791 14.0677 4.66805 14.0717 4.6782C14.0774 4.69276 14.0822 4.70732 14.0871 4.72232C14.0902 4.73202 14.0942 4.74173 14.0968 4.75188C14.1012 4.7682 14.1043 4.7854 14.1074 4.80261ZM6.45217 4.56936L6.45217 1.74011L1.69897 4.90862L3.82234 6.32876L6.45217 4.56936ZM7.66528 1.74011L12.4185 4.90862L10.2956 6.32875L7.66528 4.56936L7.66528 1.74011ZM7.05875 8.49393L4.91333 7.05879L7.05875 5.62366L9.20462 7.05879L7.05875 8.49393ZM1.21313 6.04413L2.73121 7.05927L1.21313 8.07441L1.21313 6.04413ZM12.9044 8.07441L11.3867 7.05927L12.9044 6.04413L12.9044 8.07441ZM1.69897 9.20827L6.45217 12.3768L6.45217 9.54753L3.82234 7.78857L1.69897 9.20827ZM7.66528 9.54753L7.66528 12.3768L12.4185 9.20827L10.2956 7.78857L7.66528 9.54753Z" id="Codepen_1_" fill="#FFFFFF" fill-rule="evenodd" stroke="none" />
        </g>
      </g>
    </g>
  </g>
</svg>