<?xml version="1.0" encoding="utf-8"?>
<svg width="16px" height="16px" viewBox="0 0 16 16" version="1.1" xmlns:xlink="http://www.w3.org/1999/xlink" xmlns="http://www.w3.org/2000/svg">
  <desc>Created with Lunacy</desc>
  <g id="Comment-Icon">
    <path d="M14.3314 0L1.65551 0C0.741224 0 0 0.774414 0 1.72964L0 11.1932C0 12.1484 0.741224 12.9228 1.65551 12.9228L2.02449 12.9228L2.02449 15.71C2.02449 15.9352 2.28571 16.0478 2.43918 15.8874L5.27673 12.9228L14.3347 12.9228C15.249 12.9228 15.9902 12.1484 15.9902 11.1932L15.9902 1.72964C15.9902 0.774414 15.249 0 14.3314 0ZM4.25793 6.4646C4.25793 6.96269 4.64324 7.36524 5.11998 7.36524C5.59671 7.36524 5.98202 6.95927 5.98202 6.4646C5.98202 5.96652 5.59671 5.56396 5.11998 5.56396C4.64324 5.56396 4.25793 5.96652 4.25793 6.4646ZM7.99351 7.36524C7.51678 7.36524 7.13147 6.96269 7.13147 6.4646C7.13147 5.96652 7.51678 5.56396 7.99351 5.56396C8.47025 5.56396 8.85555 5.96652 8.85555 6.4646C8.85555 6.95927 8.47025 7.36524 7.99351 7.36524ZM10.0049 6.4646C10.0049 6.96269 10.3902 7.36524 10.8669 7.36524C11.3437 7.36524 11.729 6.95927 11.729 6.4646C11.729 5.96652 11.3437 5.56396 10.8669 5.56396C10.3902 5.56396 10.0049 5.96652 10.0049 6.4646Z" id="Shape" fill="#BFC4CE" fill-rule="evenodd" stroke="none" />
  </g>
</svg>