<?xml version="1.0" encoding="utf-8"?>
<svg width="22px" height="22px" viewBox="0 0 22 22" version="1.1" xmlns:xlink="http://www.w3.org/1999/xlink" xmlns="http://www.w3.org/2000/svg">
  <desc>Created with Lunacy</desc>
  <g id="github">
    <path d="M9.97311 0C4.46533 0 0 4.46533 0 9.97311C0 15.4809 4.46533 19.9462 9.97311 19.9462C15.4809 19.9462 19.9462 15.4809 19.9462 9.97311C19.9462 4.46533 15.4809 0 9.97311 0Z" transform="translate(0.05395508 0.4151001)" id="round-bg-2" fill="#eee" stroke="none" />
    <g id="Group">
      <path d="M9.97492 0C4.46664 0 0 4.57875 0 10.2275C0 14.7465 2.85812 18.5801 6.82146 19.9326C7.31981 20.0274 7.50283 19.7107 7.50283 19.4406C7.50283 19.1967 7.49358 18.391 7.48928 17.5364C4.71425 18.1551 4.12869 16.3297 4.12869 16.3297C3.67493 15.1476 3.02115 14.8332 3.02115 14.8332C2.11596 14.1984 3.08937 14.2117 3.08937 14.2117C4.09086 14.2836 4.61845 15.2656 4.61845 15.2656C5.50811 16.8288 6.95195 16.377 7.52116 16.1158C7.61069 15.4548 7.8692 15.0034 8.15446 14.748C5.9389 14.4897 3.60969 13.6126 3.60969 9.6937C3.60969 8.57709 3.99951 7.66473 4.63761 6.94832C4.53387 6.69088 4.19245 5.65065 4.73407 4.24188C4.73407 4.24188 5.57154 3.96701 7.47772 5.29025C8.27356 5.06347 9.12705 4.94949 9.97492 4.94559C10.8223 4.94949 11.6763 5.06313 12.4736 5.28991C14.3775 3.96667 15.2139 4.24155 15.2139 4.24155C15.7569 5.65015 15.4155 6.69055 15.3119 6.94798C15.9515 7.66439 16.3385 8.57675 16.3385 9.69337C16.3385 13.6216 14.005 14.4864 11.7838 14.7397C12.1418 15.0571 12.4606 15.6797 12.4606 16.6337C12.4606 18.0022 12.449 19.1036 12.449 19.4404C12.449 19.7126 12.6287 20.0315 13.1342 19.9311C17.0952 18.5772 19.95 14.7448 19.95 10.2275C19.9498 4.57909 15.4837 0.000169352 9.97492 0.000169352L9.97492 0Z" id="Shape" fill="#BFC4CE" stroke="none" />
    </g>
  </g>
</svg>