<?xml version="1.0" encoding="utf-8"?>
<svg width="22px" height="12px" viewBox="0 0 22 12" version="1.1" xmlns:xlink="http://www.w3.org/1999/xlink" xmlns="http://www.w3.org/2000/svg">
  <desc>Created with Lunacy</desc>
  <path d="M20.501 0L1.499 0Q1.42536 0 1.35207 0.00721809Q1.27879 0.0144362 1.20656 0.0288029Q1.13433 0.0431695 1.06386 0.0645464Q0.993393 0.0859233 0.925357 0.114105Q0.857322 0.142286 0.792376 0.177Q0.727431 0.211714 0.6662 0.252627Q0.60497 0.29354 0.548045 0.340257Q0.491119 0.386975 0.439047 0.439047Q0.386975 0.491119 0.340257 0.548044Q0.29354 0.60497 0.252627 0.6662Q0.211714 0.727431 0.177 0.792376Q0.142286 0.857322 0.114105 0.925357Q0.0859233 0.993393 0.0645464 1.06386Q0.0431695 1.13433 0.0288029 1.20656Q0.0144362 1.27879 0.00721809 1.35207Q0 1.42536 0 1.499L0 1.501Q0 1.57464 0.00721809 1.64793Q0.0144362 1.72121 0.0288029 1.79344Q0.0431695 1.86567 0.0645464 1.93614Q0.0859233 2.00661 0.114105 2.07464Q0.142286 2.14268 0.177 2.20762Q0.211714 2.27257 0.252627 2.3338Q0.29354 2.39503 0.340257 2.45196Q0.386975 2.50888 0.439047 2.56095Q0.491119 2.61303 0.548044 2.65974Q0.60497 2.70646 0.6662 2.74737Q0.727431 2.78829 0.792376 2.823Q0.857322 2.85771 0.925357 2.8859Q0.993393 2.91408 1.06386 2.93545Q1.13433 2.95683 1.20656 2.9712Q1.27879 2.98556 1.35207 2.99278Q1.42536 3 1.499 3L20.501 3Q20.5746 3 20.6479 2.99278Q20.7212 2.98556 20.7934 2.9712Q20.8657 2.95683 20.9361 2.93545Q21.0066 2.91408 21.0746 2.8859Q21.1427 2.85771 21.2076 2.823Q21.2726 2.78829 21.3338 2.74737Q21.395 2.70646 21.452 2.65974Q21.5089 2.61303 21.5609 2.56095Q21.613 2.50888 21.6597 2.45196Q21.7065 2.39503 21.7474 2.3338Q21.7883 2.27257 21.823 2.20762Q21.8577 2.14268 21.8859 2.07464Q21.9141 2.00661 21.9355 1.93614Q21.9568 1.86567 21.9712 1.79344Q21.9856 1.72121 21.9928 1.64793Q22 1.57464 22 1.501L22 1.499Q22 1.42536 21.9928 1.35207Q21.9856 1.27879 21.9712 1.20656Q21.9568 1.13433 21.9355 1.06386Q21.9141 0.993393 21.8859 0.925357Q21.8577 0.857322 21.823 0.792376Q21.7883 0.727431 21.7474 0.6662Q21.7065 0.60497 21.6597 0.548044Q21.613 0.491119 21.5609 0.439047Q21.5089 0.386975 21.452 0.340257Q21.395 0.29354 21.3338 0.252627Q21.2726 0.211714 21.2076 0.177Q21.1427 0.142286 21.0746 0.114105Q21.0066 0.0859233 20.9361 0.0645464Q20.8657 0.0431695 20.7934 0.0288029Q20.7212 0.0144362 20.6479 0.00721809Q20.5746 0 20.501 0ZM20.501 9L1.499 9Q1.42536 9 1.35207 9.00722Q1.27879 9.01443 1.20656 9.0288Q1.13433 9.04317 1.06386 9.06455Q0.993393 9.08592 0.925357 9.1141Q0.857322 9.14228 0.792376 9.177Q0.727431 9.21171 0.6662 9.25262Q0.60497 9.29354 0.548045 9.34026Q0.491119 9.38698 0.439047 9.43905Q0.386975 9.49112 0.340257 9.54804Q0.29354 9.60497 0.252627 9.6662Q0.211714 9.72743 0.177 9.79237Q0.142286 9.85732 0.114105 9.92535Q0.0859233 9.99339 0.0645464 10.0639Q0.0431695 10.1343 0.0288029 10.2066Q0.0144362 10.2788 0.00721809 10.3521Q0 10.4254 0 10.499L0 10.501Q0 10.5746 0.00721809 10.6479Q0.0144362 10.7212 0.0288029 10.7934Q0.0431695 10.8657 0.0645464 10.9361Q0.0859233 11.0066 0.114105 11.0746Q0.142286 11.1427 0.177 11.2076Q0.211714 11.2726 0.252627 11.3338Q0.29354 11.395 0.340257 11.452Q0.386975 11.5089 0.439047 11.561Q0.491119 11.613 0.548044 11.6597Q0.60497 11.7065 0.6662 11.7474Q0.727431 11.7883 0.792376 11.823Q0.857322 11.8577 0.925357 11.8859Q0.993393 11.9141 1.06386 11.9355Q1.13433 11.9568 1.20656 11.9712Q1.27879 11.9856 1.35207 11.9928Q1.42536 12 1.499 12L20.501 12Q20.5746 12 20.6479 11.9928Q20.7212 11.9856 20.7934 11.9712Q20.8657 11.9568 20.9361 11.9355Q21.0066 11.9141 21.0746 11.8859Q21.1427 11.8577 21.2076 11.823Q21.2726 11.7883 21.3338 11.7474Q21.395 11.7065 21.452 11.6597Q21.5089 11.613 21.5609 11.561Q21.613 11.5089 21.6597 11.452Q21.7065 11.395 21.7474 11.3338Q21.7883 11.2726 21.823 11.2076Q21.8577 11.1427 21.8859 11.0746Q21.9141 11.0066 21.9355 10.9361Q21.9568 10.8657 21.9712 10.7934Q21.9856 10.7212 21.9928 10.6479Q22 10.5746 22 10.501L22 10.499Q22 10.4254 21.9928 10.3521Q21.9856 10.2788 21.9712 10.2066Q21.9568 10.1343 21.9355 10.0639Q21.9141 9.99339 21.8859 9.92535Q21.8577 9.85732 21.823 9.79237Q21.7883 9.72743 21.7474 9.6662Q21.7065 9.60497 21.6597 9.54804Q21.613 9.49112 21.5609 9.43904Q21.5089 9.38697 21.452 9.34026Q21.395 9.29354 21.3338 9.25262Q21.2726 9.21171 21.2076 9.177Q21.1427 9.14228 21.0746 9.1141Q21.0066 9.08592 20.9361 9.06455Q20.8657 9.04317 20.7934 9.0288Q20.7212 9.01443 20.6479 9.00722Q20.5746 9 20.501 9Z" id="Combined-Shape" fill="#709BE7" fill-rule="evenodd" stroke="none" />
</svg>