<?xml version="1.0" encoding="utf-8"?>
<svg width="20px" height="20px" viewBox="0 0 20 20" version="1.1" xmlns:xlink="http://www.w3.org/1999/xlink" xmlns="http://www.w3.org/2000/svg">
  <desc>Created with Lunacy</desc>
  <g id="instagram">
    <path d="M0 0L10.0004 0L10.0004 10.0004L0 10.0004L0 0Z" transform="translate(4.999756 4.999512)" id="Background" fill="none" stroke="none" />
    <path d="M9.97311 0C4.46533 0 0 4.46533 0 9.97311C0 15.4809 4.46533 19.9462 9.97311 19.9462C15.4809 19.9462 19.9462 15.4809 19.9462 9.97311C19.9462 4.46533 15.4809 0 9.97311 0Z" id="round-bg" fill="#BFC4CE" stroke="none" />
    <g id="insta" transform="translate(2.946045 2.998535)">
      <path d="M4.11429 0.0420004C4.86096 0.00875008 5.09838 0 7.00007 0C8.90175 0 9.13917 0.00700007 9.88584 0.0420004C10.6308 0.0764174 11.1389 0.194252 11.5851 0.367503C12.0465 0.545422 12.4362 0.785757 12.8253 1.17484C13.2138 1.56393 13.4541 1.95477 13.6326 2.41502C13.8053 2.86069 13.9231 3.36936 13.9581 4.11429C13.9914 4.86096 14.0001 5.09838 14.0001 7.00006C14.0001 8.90175 13.9931 9.13917 13.9581 9.88584C13.9237 10.6308 13.8053 11.1389 13.6326 11.5851C13.4547 12.0465 13.2138 12.4362 12.8253 12.8253C12.4362 13.2138 12.0448 13.4541 11.5851 13.6326C11.1389 13.8053 10.6308 13.9231 9.88584 13.9581C9.13917 13.9914 8.90175 14.0001 7.00007 14.0001C5.09838 14.0001 4.86096 13.9931 4.11429 13.9581C3.36936 13.9237 2.86186 13.8053 2.41502 13.6326C1.95418 13.4547 1.56393 13.2138 1.17484 12.8253C0.785757 12.4362 0.546005 12.0448 0.367503 11.5851C0.194252 11.1389 0.0770007 10.6308 0.0420004 9.88584C0.00875008 9.13917 0 8.90175 0 7.00006C0 5.09838 0.00700007 4.86096 0.0420004 4.11429C0.0764174 3.36878 0.194252 2.86128 0.367503 2.41502C0.545422 1.95418 0.785757 1.56393 1.17484 1.17484C1.56393 0.785757 1.95477 0.546005 2.41502 0.367503C2.86128 0.194252 3.36878 0.0770007 4.11429 0.0420004ZM7.00019 1.26018C8.86862 1.26018 9.09146 1.26951 9.82938 1.30159C10.5119 1.33368 10.8823 1.44684 11.1285 1.54368C11.4563 1.67026 11.6885 1.82193 11.9347 2.06635C12.1791 2.31135 12.3307 2.5441 12.4573 2.87194C12.553 3.11811 12.6673 3.48853 12.6982 4.17104C12.7315 4.90954 12.7391 5.13121 12.7391 7.00023C12.7391 8.86925 12.7303 9.0915 12.6959 9.82942C12.6603 10.5119 12.5466 10.8823 12.4503 11.1285C12.3197 11.4564 12.1709 11.6885 11.9259 11.9347C11.6815 12.1791 11.4452 12.3308 11.1209 12.4574C10.8759 12.553 10.4996 12.6674 9.81713 12.6983C9.07396 12.7315 8.85521 12.7391 6.98269 12.7391C5.10959 12.7391 4.89084 12.7304 4.14825 12.6959C3.46516 12.6604 3.0889 12.5466 2.8439 12.4504C2.51198 12.3197 2.2839 12.1709 2.03948 11.9259C1.79389 11.6815 1.63697 11.4453 1.51447 11.1209C1.41822 10.8759 1.30505 10.4997 1.26947 9.81717C1.24322 9.08216 1.23389 8.85525 1.23389 6.99148C1.23389 5.12713 1.24322 4.89963 1.26947 4.15587C1.30505 3.47336 1.41822 3.09769 1.51447 2.85269C1.63697 2.52019 1.79389 2.29269 2.03948 2.0471C2.2839 1.80268 2.51198 1.64518 2.8439 1.52326C3.0889 1.42643 3.45699 1.31268 4.1395 1.27768C4.88325 1.25143 5.10201 1.24268 6.97394 1.24268L7.00019 1.26018ZM10.737 4.10375C11.2002 4.10375 11.577 3.7275 11.577 3.26374C11.577 2.80057 11.1996 2.42373 10.737 2.42432C10.2738 2.42432 9.89697 2.80057 9.89697 3.26374C9.89697 3.72691 10.2732 4.10375 10.737 4.10375ZM3.40576 7.0003C3.40576 5.01578 5.01403 3.40576 7.0003 3.40576C8.98481 3.40576 10.5948 5.01403 10.5948 7.0003C10.5948 8.98481 8.98656 10.5948 7.0003 10.5948C5.01578 10.5948 3.40576 8.98656 3.40576 7.0003ZM7.0001 9.3337C5.71092 9.3337 4.66675 8.28953 4.66675 7.00035C4.66675 5.71117 5.71092 4.66699 7.0001 4.66699C8.28928 4.66699 9.33346 5.71117 9.33346 7.00035C9.33346 8.28953 8.28928 9.3337 7.0001 9.3337Z" id="Shape" fill="#FFFFFF" fill-rule="evenodd" stroke="none" />
    </g>
  </g>
</svg>