<?xml version="1.0" encoding="utf-8"?>
<svg width="20px" height="20px" viewBox="0 0 20 20" version="1.1" xmlns:xlink="http://www.w3.org/1999/xlink" xmlns="http://www.w3.org/2000/svg">
  <desc>Created with Lunacy</desc>
  <g id="linkedin">
    <path d="M0 0L10.0004 0L10.0004 10.0004L0 10.0004L0 0Z" transform="translate(4.999756 4.999512)" id="Background" fill="none" stroke="none" />
    <path d="M9.97311 0C4.46533 0 0 4.46533 0 9.97311C0 15.4809 4.46533 19.9462 9.97311 19.9462C15.4809 19.9462 19.9462 15.4809 19.9462 9.97311C19.9462 4.46533 15.4809 0 9.97311 0Z" id="round-bg" fill="#eee" stroke="none" />
    <g id="linkedin" transform="translate(3.946045 2.851563)">
      <path d="M1.58193 3.1654C0.704701 3.1654 0 2.45533 0 1.58193C0 0.709302 0.705467 0 1.58193 0C2.4561 0 3.16464 0.709302 3.16464 1.58193C3.16464 2.45533 2.45533 3.1654 1.58193 3.1654ZM10.4432 13.1485L13.1692 13.1485L13.1692 8.32829C13.1692 5.96267 12.6585 4.14532 9.89724 4.14532C8.56836 4.14532 7.67885 4.8738 7.31308 5.56393L7.27781 5.56393L7.27781 4.36693L4.65991 4.36693L4.65991 13.1485L7.38517 13.1485L7.38517 8.80294C7.38517 7.65733 7.60217 6.54928 9.02308 6.54928C10.4225 6.54928 10.4432 7.85977 10.4432 8.87809L10.4432 13.1485ZM0.215576 13.1483L2.9485 13.1483L2.9485 4.36676L0.215576 4.36676L0.215576 13.1483Z" id="Shape" fill="#FFFFFF" fill-rule="evenodd" stroke="none" />
    </g>
  </g>
</svg>