<?xml version="1.0" encoding="utf-8"?>
<svg width="14px" height="35px" viewBox="0 0 14 35" version="1.1" xmlns:xlink="http://www.w3.org/1999/xlink" xmlns="http://www.w3.org/2000/svg">
  <desc>Created with Lunacy</desc>
  <g id="Arrows">
    <g id="Arrow" transform="matrix(-4.371139E-08 1 -1 -4.371139E-08 13.99524 26.00006)">
      <path d="M7.71217 7.69047L1.6777 13.708C1.29383 14.091 0.671461 14.091 0.287783 13.708C-0.0959275 13.3254 -0.0959275 12.7048 0.287783 12.3221L5.62736 6.99753L0.287938 1.6731C-0.0957722 1.2903 -0.0957722 0.669747 0.287938 0.287101C0.671648 -0.0957002 1.29399 -0.0957002 1.67785 0.287101L7.71233 6.30475C7.90418 6.49616 8 6.74677 8 6.9975C8 7.24835 7.904 7.49915 7.71217 7.69047Z" id="Shape" fill="#FFFFFF" stroke="none" />
    </g>
    <g id="Arrow" transform="matrix(-4.371139E-08 1 -1 -4.371139E-08 13.99524 13.00006)">
      <path d="M7.71217 7.69047L1.6777 13.708C1.29383 14.091 0.671461 14.091 0.287783 13.708C-0.0959275 13.3254 -0.0959275 12.7048 0.287783 12.3221L5.62736 6.99753L0.287938 1.6731C-0.0957722 1.2903 -0.0957722 0.669747 0.287938 0.287101C0.671648 -0.0957002 1.29399 -0.0957002 1.67785 0.287101L7.71233 6.30475C7.90418 6.49616 8 6.74677 8 6.9975C8 7.24835 7.904 7.49915 7.71217 7.69047Z" id="Shape" fill="#FFFFFF" fill-opacity="0.5" stroke="none" />
    </g>
    <g id="Arrow" transform="matrix(-4.371139E-08 1 -1 -4.371139E-08 13.99524 0)">
      <path d="M7.71217 7.69047L1.6777 13.708C1.29383 14.091 0.671461 14.091 0.287783 13.708C-0.0959275 13.3254 -0.0959275 12.7048 0.287783 12.3221L5.62736 6.99753L0.287938 1.6731C-0.0957722 1.2903 -0.0957722 0.669747 0.287938 0.287101C0.671648 -0.0957002 1.29399 -0.0957002 1.67785 0.287101L7.71233 6.30475C7.90418 6.49616 8 6.74677 8 6.9975C8 7.24835 7.904 7.49915 7.71217 7.69047Z" id="Shape" fill="#FFFFFF" fill-opacity="0.1" stroke="none" />
    </g>
  </g>
</svg>