<?xml version="1.0" encoding="utf-8"?>
<svg width="20px" height="20px" viewBox="0 0 20 20" version="1.1" xmlns:xlink="http://www.w3.org/1999/xlink" xmlns="http://www.w3.org/2000/svg">
  <desc>Created with Lunacy</desc>
  <g id="twitter">
    <path d="M0 0L10.0004 0L10.0004 10.0004L0 10.0004L0 0Z" transform="translate(4.999756 4.999512)" id="Background" fill="none" stroke="none" />
    <path d="M9.97311 0C4.46533 0 0 4.46533 0 9.97311C0 15.4809 4.46533 19.9462 9.97311 19.9462C15.4809 19.9462 19.9462 15.4809 19.9462 9.97311C19.9462 4.46533 15.4809 0 9.97311 0Z" id="round-bg" fill="#BFC4CE" stroke="none" />
    <path d="M13.9726 1.35503C13.4564 1.58193 12.9051 1.73651 12.3247 1.80709C12.9162 1.45069 13.3712 0.888963 13.5864 0.218741C13.0317 0.542477 12.4169 0.778134 11.7624 0.909379C11.2398 0.349985 10.4949 0 9.66776 0C8.08291 0 6.79788 1.28503 6.79788 2.86813C6.79788 3.09562 6.82413 3.31436 6.87196 3.52377C4.48623 3.41119 2.37173 2.26557 0.956627 0.533728C0.707554 0.954877 0.568143 1.44427 0.568143 1.97742C0.568143 2.97488 1.07562 3.85159 1.84442 4.36665C1.37369 4.35149 0.930961 4.22199 0.544811 4.00733L0.544811 4.04292C0.544811 5.43411 1.53235 6.59431 2.84655 6.85855C2.60564 6.9233 2.35132 6.95829 2.09058 6.95829C1.90742 6.95829 1.73184 6.94079 1.55627 6.90813C1.92434 8.04733 2.98246 8.87796 4.24182 8.9013C3.26186 9.67068 2.02 10.1292 0.682472 10.1292C0.454981 10.1292 0.228074 10.1157 0 10.0901C1.27686 10.9032 2.78122 11.3786 4.40807 11.3786C9.68935 11.3786 12.5738 7.00612 12.5738 3.22045C12.5738 3.09854 12.5738 2.97546 12.5651 2.85296C13.1256 2.45106 13.615 1.943 14 1.36669L13.9726 1.35503L13.9726 1.35503Z" transform="translate(2.999756 5.053711)" id="Shape" fill="#FFFFFF" stroke="none" />
  </g>
</svg>