<?xml version="1.0" encoding="utf-8"?>
<svg width="16px" height="11px" viewBox="0 0 16 11" version="1.1" xmlns:xlink="http://www.w3.org/1999/xlink" xmlns="http://www.w3.org/2000/svg">
  <desc>Created with Lunacy</desc>
  <g id="View-Icon">
    <path d="M0.125153 5.03447C2.17014 1.91843 4.94151 0 7.99755 0C11.0536 0 13.8249 1.91843 15.8699 5.03823C16.0368 5.29352 16.0368 5.65017 15.8699 5.90546C13.8249 9.0215 11.0536 10.9399 7.99755 10.9399C4.94151 10.9399 2.17014 9.0215 0.125153 5.90171C-0.0417178 5.64642 -0.0417178 5.28976 0.125153 5.03447ZM8.21678 9.32197C6.18815 9.46838 4.5129 7.54995 4.64051 5.21855C4.74521 3.29637 6.10308 1.73835 7.77834 1.61821C9.80697 1.4718 11.4822 3.39023 11.3546 5.72163C11.2466 7.64006 9.88877 9.19808 8.21678 9.32197ZM6.1914 5.33484C6.11942 6.58877 7.02249 7.62119 8.11533 7.54235C9.01513 7.47853 9.74805 6.64132 9.80695 5.60139C9.87893 4.34747 8.97586 3.31504 7.88302 3.39388C6.97995 3.46146 6.24703 4.29866 6.1914 5.33484Z" id="Shape" fill="#BFC4CE" fill-rule="evenodd" stroke="none" />
  </g>
</svg>